<svg xmlns="http://www.w3.org/2000/svg" width="680" height="560" viewBox="0 0 680 560">
  <g id="Page-1" fill="none" fill-rule="evenodd" stroke="none" stroke-width="1">
    <g id="machine-vision-svgrepo-com" fill-rule="nonzero">
      <path id="Path" fill="#FFF" d="M626.53 30H53.47A23.54 23.54 0 0 0 30 53.48v378.04A23.54 23.54 0 0 0 53.47 455h573.06A23.54 23.54 0 0 0 650 431.52V53.48A23.54 23.54 0 0 0 626.53 30z"/>
      <path id="Path" fill="#E6E6E6" d="M54.55 454.66h570.9a23.45 23.45 0 0 0 23.38-23.4v-17.22H31.17v17.23a23.4 23.4 0 0 0 23.38 23.4z"/>
      <path id="Shape" fill="#0F2E4D" d="M625.45 0H54.55A54.58 54.58 0 0 0 0 54.5v376A54.58 54.58 0 0 0 54.55 485h570.9A54.58 54.58 0 0 0 680 430.5v-376A54.58 54.58 0 0 0 625.45 0zM650 414.23v17.3A23.54 23.54 0 0 1 626.53 455H53.47A23.54 23.54 0 0 1 30 431.52V53.48A23.54 23.54 0 0 1 53.47 30h573.06A23.54 23.54 0 0 1 650 53.48v360.75zM469.36 560H210.64a15.64 15.64 0 0 1-15.59-15.6c0-8.57 7.02-15.6 15.59-15.6h258.72c8.57 0 15.6 7.03 15.6 15.6 0 8.58-7.03 15.61-15.6 15.61z"/>
      <path id="Path" fill="#0A2B4D" d="M40.06 397.5a7.77 7.77 0 0 1-5.22-13.49l184.3-171.22 82.68 90.52L503.57 76.65 646.72 229.7a7.77 7.77 0 1 1-11.3 10.68L503.89 99.72 302.05 326.55l-83.85-91.77L45.35 395.4a7.9 7.9 0 0 1-5.3 2.1z"/>
      <path id="Path" fill="#6B8EB3" d="M62.89 303.3c0 35.67 28.85 64.58 64.44 64.58 35.6 0 64.45-28.9 64.45-64.57 0-35.65-28.85-64.56-64.45-64.56s-64.44 28.9-64.44 64.56z"/>
      <path id="Path" fill="#335980" d="M81.12 303.3a46.19 46.19 0 1 0 92.42 0 46.22 46.22 0 0 0-46.2-46.22 46.22 46.22 0 0 0-46.22 46.23z"/>
      <path id="Path" fill="#0F2E4D" d="M103.8 303.3a23.58 23.58 0 0 0 23.53 23.64c13 0 23.54-10.58 23.54-23.63a23.58 23.58 0 0 0-23.54-23.62c-13 0-23.53 10.58-23.53 23.62z"/>
      <path id="Path" fill="#6B8EB3" d="M393.7 138a64.58 64.58 0 0 0 32.22 55.92 64.35 64.35 0 0 0 64.44 0 64.58 64.58 0 0 0 32.23-55.9 64.58 64.58 0 0 0-32.23-55.92 64.35 64.35 0 0 0-64.44 0A64.58 64.58 0 0 0 393.7 138z"/>
      <path id="Path" fill="#335980" d="M411.93 138a46.22 46.22 0 0 0 46.2 46.25A46.22 46.22 0 0 0 504.36 138a46.22 46.22 0 0 0-46.21-46.24 46.22 46.22 0 0 0-46.2 46.24z"/>
      <path id="Path" fill="#0F2E4D" d="M434.6 138a23.58 23.58 0 0 0 23.54 23.64c13 0 23.53-10.58 23.53-23.63a23.58 23.58 0 0 0-23.53-23.62c-13 0-23.54 10.57-23.54 23.62z"/>
      <path id="Path" fill="#6B8EB3" d="M501.54 301.52a36.13 36.13 0 0 0 36.1 36.18 36.13 36.13 0 0 0 36.07-36.18 36.13 36.13 0 0 0-36.08-36.18 36.13 36.13 0 0 0-36.09 36.18z"/>
      <path id="Path" fill="#335980" d="M511.75 301.52a25.88 25.88 0 1 0 51.76.02 25.88 25.88 0 0 0-51.76-.02z"/>
      <path id="Path" fill="#0F2E4D" d="M524.46 301.52c0 7.32 5.9 13.26 13.17 13.26s13.17-5.94 13.17-13.26c0-7.32-5.9-13.25-13.17-13.25a13.21 13.21 0 0 0-13.17 13.25z"/>
      <path id="Shape" fill="#FFF" d="M281.4 442.26H155.47a6.99 6.99 0 0 1-7.02-7.02c0-3.9 3.12-7 7.02-7H281.4c3.9 0 7.01 3.11 7.01 7a7.07 7.07 0 0 1-6.99 7.02zm-168.48 0H92.27a6.99 6.99 0 0 1-7.02-7.02c0-3.9 3.12-7 7.02-7h20.65c3.9 0 7.01 3.11 7.01 7a7.1 7.1 0 0 1-7.01 7.02z"/>
    </g>
  </g>
</svg>
